<?xml version="1.0" encoding="UTF-8" standalone="no"?>
<!-- Created with Inkscape (http://www.inkscape.org/) -->

<svg
   xmlns:dc="http://purl.org/dc/elements/1.1/"
   xmlns:cc="http://creativecommons.org/ns#"
   xmlns:rdf="http://www.w3.org/1999/02/22-rdf-syntax-ns#"
   xmlns:svg="http://www.w3.org/2000/svg"
   xmlns="http://www.w3.org/2000/svg"
   xmlns:sodipodi="http://sodipodi.sourceforge.net/DTD/sodipodi-0.dtd"
   xmlns:inkscape="http://www.inkscape.org/namespaces/inkscape"
   width="400"
   height="100"
   viewBox="0 0 105.83334 26.458333"
   version="1.1"
   id="svg8"
   inkscape:version="0.92.5 (2060ec1f9f, 2020-04-08)"
   sodipodi:docname="keyforge-rarity.svg"
   inkscape:export-filename="C:\Git\DeckLock\theme\static\img\keyforge-rarity.png"
   inkscape:export-xdpi="96"
   inkscape:export-ydpi="96">
  <defs
     id="defs2">
    <clipPath
       id="a">
      <path
         id="path815"
         d="M 0,90 H 90 V 0 H 0 Z"
         inkscape:connector-curvature="0" />
    </clipPath>
    <clipPath
       id="a-6">
      <path
         id="path834"
         d="M 0,90 H 90 V 0 H 0 Z"
         inkscape:connector-curvature="0" />
    </clipPath>
  </defs>
  <sodipodi:namedview
     id="base"
     pagecolor="#ffffff"
     bordercolor="#666666"
     borderopacity="1.0"
     inkscape:pageopacity="0.0"
     inkscape:pageshadow="2"
     inkscape:zoom="2.8"
     inkscape:cx="161.9868"
     inkscape:cy="-7.9124063"
     inkscape:document-units="mm"
     inkscape:current-layer="g886"
     showgrid="false"
     inkscape:window-width="2560"
     inkscape:window-height="1361"
     inkscape:window-x="-9"
     inkscape:window-y="-9"
     inkscape:window-maximized="1"
     fit-margin-top="0"
     fit-margin-left="0"
     fit-margin-right="0"
     fit-margin-bottom="0"
     units="px"
     showguides="true"
     inkscape:guide-bbox="true" />
  <metadata
     id="metadata5">
    <rdf:RDF>
      <cc:Work
         rdf:about="">
        <dc:format>image/svg+xml</dc:format>
        <dc:type
           rdf:resource="http://purl.org/dc/dcmitype/StillImage" />
        <dc:title></dc:title>
      </cc:Work>
    </rdf:RDF>
  </metadata>
  <g
     inkscape:label="Layer 1"
     inkscape:groupmode="layer"
     id="layer1"
     transform="translate(-65.120255,-169.20212)">
    <g
       id="g886"
       style="fill:#cccccc">
      <g
         style="fill:#cccccc"
         clip-path="url(#a)"
         transform="matrix(0.31251841,0,0,-0.31251841,143.70439,196.49458)"
         id="g822">
        <path
           inkscape:connector-curvature="0"
           d="m 52.459,37.542 c -2.06,-2.06 -4.551,-3.083 -7.467,-3.083 -2.916,0 -5.405,1.034 -7.46,3.09 -2.06,2.059 -3.089,4.544 -3.085,7.455 0.004,2.913 1.032,5.398 3.092,7.458 2.059,2.059 4.545,3.088 7.457,3.092 2.912,0.004 5.397,-1.026 7.456,-3.086 2.055,-2.055 3.089,-4.544 3.089,-7.46 0,-2.916 -1.023,-5.406 -3.082,-7.466 m 27.676,8.883 -0.739,0.279 C 59.862,54.076 53.616,60.373 46.433,79.998 L 46.432,80 c -0.488,1.333 -2.372,1.333 -2.86,0 C 36.39,60.379 30.151,54.089 10.625,46.712 l -0.76,-0.287 c -1.313,-0.496 -1.313,-2.353 0,-2.85 l 0.76,-0.287 C 30.151,35.911 36.389,29.621 43.571,10 V 9.999 c 0.488,-1.332 2.372,-1.332 2.861,0 v 0.003 c 7.183,19.625 13.43,25.923 32.964,33.295 l 0.739,0.279 c 1.313,0.496 1.313,2.354 0,2.849"
           id="path820"
           style="fill:#cccccc" />
      </g>
      <g
         style="fill:#cccccc"
         clip-path="url(#a-6)"
         transform="matrix(0.31251841,0,0,-0.31251841,64.34084,196.49462)"
         id="g841">
        <path
           inkscape:connector-curvature="0"
           d="m 13.5,45 c 0,8.696 3.076,16.114 9.216,22.272 6.14,6.157 13.558,9.228 22.256,9.228 8.679,0 16.115,-3.071 22.272,-9.228 C 73.401,61.114 76.5,53.696 76.5,45 76.5,36.304 73.401,28.885 67.244,22.729 61.087,16.571 53.651,13.5 44.972,13.5 36.274,13.5 28.856,16.571 22.716,22.729 16.576,28.885 13.5,36.304 13.5,45"
           id="path839"
           style="fill:#cccccc" />
      </g>
      <path
         style="fill:#cccccc;stroke-width:0.23438938"
         inkscape:connector-curvature="0"
         d="m 94.356713,182.43832 11.243647,-11.25772 11.25773,11.25772 -11.25773,11.24366 z"
         id="path853" />
      <path
         style="fill:#cccccc;stroke-width:0.23438938"
         inkscape:connector-curvature="0"
         d="m 119.35984,179.77426 8.67733,-0.64692 3.14503,-7.94674 3.14457,7.94627 8.6771,0.64739 -6.73494,5.33845 2.22857,8.56927 -7.3153,-4.87389 -7.31552,4.87389 2.21381,-8.56927 z"
         id="path864" />
    </g>
  </g>
</svg>
