<?xml version="1.0" standalone="no"?>
<!DOCTYPE svg PUBLIC "-//W3C//DTD SVG 20010904//EN"
 "http://www.w3.org/TR/2001/REC-SVG-20010904/DTD/svg10.dtd">
<svg version="1.0" xmlns="http://www.w3.org/2000/svg"
 width="260.000000pt" height="260.000000pt" viewBox="0 0 260.000000 260.000000"
 preserveAspectRatio="xMidYMid meet">
<metadata>
Created by potrace 1.14, written by Peter Selinger 2001-2017
</metadata>
<g transform="translate(0.000000,260.000000) scale(0.100000,-0.100000)"
fill="#000000" stroke="none">
<path d="M824 2060 c-42 -17 -80 -76 -75 -116 1 -7 -129 -87 -289 -179 -180
-104 -298 -178 -310 -195 -30 -41 -25 -87 15 -153 19 -31 49 -83 66 -115 40
-71 303 -526 374 -648 30 -50 61 -96 69 -103 26 -22 89 -25 125 -6 29 15 83
16 496 17 422 1 468 -1 501 -17 40 -19 104 -16 130 6 18 15 55 77 329 553 133
230 209 372 212 395 8 67 -14 86 -283 241 -137 79 -258 149 -269 155 -54 29
-65 41 -65 68 0 17 -12 41 -34 65 l-34 37 -469 2 c-257 1 -477 -2 -489 -7z
m924 -725 c1 -346 0 -639 -3 -651 -5 -21 -6 -21 -447 -20 l-443 1 -3 640 c-1
352 0 646 3 653 3 10 98 12 447 10 l443 -3 3 -630z m-1004 -120 c1 -322 -1
-585 -4 -585 -3 1 -68 110 -144 243 -77 133 -191 332 -255 441 -63 110 -111
201 -106 203 6 2 120 68 255 147 135 79 247 141 249 140 2 -2 5 -267 5 -589z
m1612 303 c14 -13 19 -4 -368 -673 -60 -104 -115 -196 -122 -202 -9 -10 -11
123 -10 575 1 323 2 588 3 589 2 4 485 -277 497 -289z"/>
<path d="M1258 1609 c-80 -12 -149 -68 -178 -143 -30 -81 -2 -197 61 -251 l30
-25 -57 -95 c-31 -53 -53 -99 -50 -103 10 -10 450 -8 457 2 4 4 -18 51 -48
103 l-54 94 24 22 c79 72 99 167 56 267 -41 95 -134 145 -241 129z"/>
</g>
</svg>
